<?xml version="1.0" encoding="UTF-8"?>
<svg version="1.1" xmlns="http://www.w3.org/2000/svg" width="512" height="512">
<path d="M0 0 C1.37605408 0.00081573 1.37605408 0.00081573 2.77990723 0.00164795 C18.02728865 0.04303247 32.64098951 0.9962537 47.5625 4.375 C48.99795166 4.69645996 48.99795166 4.69645996 50.46240234 5.02441406 C63.76033898 8.10818874 76.1906166 12.64483436 88.5625 18.375 C89.20123047 18.66487793 89.83996094 18.95475586 90.49804688 19.25341797 C108.19169895 27.34019118 123.43132193 39.12702056 137.5625 52.375 C138.05621094 52.83471191 138.54992187 53.29442383 139.05859375 53.76806641 C172.59755142 85.24743098 195.03275351 132.75217951 196.6887207 178.8918457 C196.77002024 182.99114918 196.80912382 187.0874979 196.8125 191.1875 C196.81317474 191.92976837 196.81384949 192.67203674 196.81454468 193.4367981 C196.73401229 249.81775056 181.24933173 304.45405154 155.5625 354.375 C155.07370361 355.332854 154.58490723 356.29070801 154.08129883 357.27758789 C151.74370705 361.72697477 149.35707296 365.8049766 146.18359375 369.7109375 C141.49397818 375.550003 138.02229753 380.1541758 138.7109375 387.92578125 C139.586869 393.3569967 141.00483006 398.60501181 142.55078125 403.87988281 C143.59976271 407.50372899 144.5290259 411.14323277 145.4375 414.8046875 C156.38701233 460.82388071 156.38701233 460.82388071 182.5625 499.125 C185.29016296 501.70975578 185.52900714 502.15171427 186.125 506.125 C185.5625 509.375 185.5625 509.375 183.5625 512.375 C180.4875364 512.67789473 177.6128336 512.78335504 174.53456116 512.76268005 C173.11409671 512.77075836 173.11409671 512.77075836 171.66493601 512.77899987 C168.47188808 512.79337892 165.27924893 512.78615127 162.08618164 512.77905273 C159.80506555 512.78475111 157.52395232 512.79171328 155.24284363 512.79985046 C149.03217408 512.81785597 142.82164524 512.81659962 136.61095738 512.81090808 C131.43419061 512.80782685 126.25745129 512.81389676 121.08068842 512.81994683 C108.17330941 512.83482011 95.26601889 512.83115811 82.35864138 512.81908352 C71.14130837 512.8091505 59.92414028 512.82209041 48.70683271 512.84601771 C37.19755581 512.87038341 25.68837455 512.87962259 14.17907041 512.87336498 C7.71399979 512.86998563 1.24906544 512.87247522 -5.21598625 512.88961601 C-11.29397672 512.90502593 -17.37165112 512.90119587 -23.44962883 512.88231087 C-25.68498675 512.87860843 -27.92036778 512.88178119 -30.1557045 512.89219666 C-33.1983657 512.90529524 -36.23996323 512.8939581 -39.28257751 512.87620544 C-40.17517476 512.88581045 -41.067772 512.89541546 -41.98741764 512.90531152 C-47.92322924 512.83364629 -47.92322924 512.83364629 -50.44718266 510.58268833 C-52.01513174 507.08730079 -52.67909511 503.42074446 -53.4375 499.6875 C-55.99085596 487.99559385 -59.81487651 476.78849145 -63.69140625 465.4855957 C-63.92990295 464.78807693 -64.16839966 464.09055817 -64.41412354 463.37190247 C-65.06973646 461.45938156 -65.73145065 459.5489553 -66.39355469 457.63867188 C-67.27628639 454.87899989 -67.94793144 452.22609622 -68.4375 449.375 C-69.26660889 449.7373877 -70.09571777 450.09977539 -70.94995117 450.47314453 C-87.17927764 457.527812 -103.15712264 464.29444397 -120.4375 468.375 C-121.46875 468.63667969 -122.5 468.89835937 -123.5625 469.16796875 C-136.59711188 472.05808359 -150.93206956 471.80773063 -162.6875 465.125 C-168.86870127 460.95425005 -173.28005367 455.56648777 -175.4375 448.375 C-176.09444832 440.02071819 -174.80353722 431.90679828 -173.4375 423.6875 C-173.24671875 422.49705078 -173.0559375 421.30660156 -172.859375 420.08007812 C-172.39302702 417.17706193 -171.9189498 414.27554295 -171.4375 411.375 C-172.0248291 411.25165283 -172.6121582 411.12830566 -173.21728516 411.0012207 C-188.15107015 407.78845373 -188.15107015 407.78845373 -192.6875 403 C-194.16334288 397.83454993 -191.24956505 393.94242144 -188.8125 389.5 C-188.0258061 388.12214884 -187.23581456 386.74615097 -186.4375 385.375 C-187.35982422 385.22804688 -187.35982422 385.22804688 -188.30078125 385.078125 C-189.10902344 384.92859375 -189.91726562 384.7790625 -190.75 384.625 C-191.55050781 384.48578125 -192.35101563 384.3465625 -193.17578125 384.203125 C-196.10207654 383.13166628 -196.94992534 382.0991211 -198.4375 379.375 C-198.94921875 376.6328125 -198.94921875 376.6328125 -199.125 373.5 C-199.18945312 372.36433594 -199.25390625 371.22867187 -199.3203125 370.05859375 C-199.50789304 364.16231199 -199.51708721 358.27329628 -199.4375 352.375 C-200.70464844 352.32601563 -201.97179687 352.27703125 -203.27734375 352.2265625 C-204.97658096 352.15145809 -206.67579876 352.07591368 -208.375 352 C-209.20580078 351.9690625 -210.03660156 351.938125 -210.89257812 351.90625 C-220.44876377 351.46004678 -228.4715792 350.40381851 -235.4375 343.375 C-239.6760002 338.13358708 -240.11717143 332.43193664 -239.875 325.85546875 C-237.13601409 304.06585763 -220.13345442 282.24978371 -204.61328125 267.66015625 C-199.35545154 262.45324983 -198.55578252 256.60501884 -198.4375 249.375 C-199.25390314 234.39118718 -203.68214669 218.63388588 -209.50073242 204.85766602 C-219.11179453 179.38597183 -209.43924877 140.82523629 -199 116.875 C-197.85451151 114.35341727 -196.66166757 111.85924045 -195.4375 109.375 C-194.88191406 108.24707031 -194.32632813 107.11914062 -193.75390625 105.95703125 C-189.618429 97.96304866 -184.76765291 90.60356354 -179.4375 83.375 C-178.8084375 82.5190625 -178.179375 81.663125 -177.53125 80.78125 C-165.74505525 65.62757104 -151.40094956 52.02091216 -135.4375 41.375 C-134.65713379 40.85244629 -133.87676758 40.32989258 -133.07275391 39.79150391 C-93.18537808 13.4162601 -47.74963738 -0.10723683 0 0 Z M-32.27905273 48.6550293 C-34.6906448 52.2355701 -34.98386956 56.16957894 -35.4375 60.375 C-35.6182722 61.77640852 -35.80208478 63.17742686 -35.98828125 64.578125 C-36.50358917 68.50696799 -36.97848629 72.43920158 -37.4375 76.375 C-40.66378592 77.6946608 -43.89399304 79.00444528 -47.125 80.3125 C-48.03701172 80.68568359 -48.94902344 81.05886719 -49.88867188 81.44335938 C-50.77490234 81.80107422 -51.66113281 82.15878906 -52.57421875 82.52734375 C-53.38592529 82.85726318 -54.19763184 83.18718262 -55.03393555 83.52709961 C-57.56285875 84.41922254 -59.75997771 85.13622296 -62.4375 85.375 C-64.41040039 84.3269043 -64.41040039 84.3269043 -66.28515625 82.69921875 C-66.97287109 82.11849609 -67.66058594 81.53777344 -68.36914062 80.93945312 C-69.07232422 80.32005859 -69.77550781 79.70066406 -70.5 79.0625 C-71.90482261 77.85489041 -73.31228916 76.65034828 -74.72265625 75.44921875 C-75.34019775 74.90869873 -75.95773926 74.36817871 -76.59399414 73.8112793 C-79.84513237 71.27831066 -82.47701386 69.99623723 -86.64257812 70.27148438 C-92.69825979 71.13410828 -96.01628384 74.80042473 -100.15625 79.03125 C-101.33217712 80.19569641 -101.33217712 80.19569641 -102.53186035 81.38366699 C-104.17854849 83.02492839 -105.81524586 84.67626776 -107.44238281 86.33691406 C-109.93008408 88.86745637 -112.45758195 91.35247649 -114.9921875 93.8359375 C-116.59111291 95.44014967 -118.18755472 97.04684188 -119.78125 98.65625 C-120.53531128 99.39411743 -121.28937256 100.13198486 -122.06628418 100.89221191 C-126.27612296 105.2555459 -128.28805081 108.34068771 -128.57565308 114.47244263 C-128.38296493 117.12602277 -127.68414517 118.64786737 -126.0625 120.75 C-125.51722656 121.48476562 -124.97195312 122.21953125 -124.41015625 122.9765625 C-122.96034873 124.73929878 -121.48516041 126.48123767 -119.99609375 128.2109375 C-119.17238281 129.17257813 -118.34867188 130.13421875 -117.5 131.125 C-116.70722656 132.00671875 -115.91445312 132.8884375 -115.09765625 133.796875 C-113.4375 136.375 -113.4375 136.375 -113.71826172 138.73217773 C-114.42447976 141.32715746 -115.27281808 143.74760798 -116.28515625 146.23828125 C-116.64287109 147.12451172 -117.00058594 148.01074219 -117.36914062 148.92382812 C-117.74232422 149.83583984 -118.11550781 150.74785156 -118.5 151.6875 C-118.87705078 152.61884766 -119.25410156 153.55019531 -119.64257812 154.50976562 C-120.57033125 156.79978917 -121.50208001 159.08809996 -122.4375 161.375 C-123.1080542 161.45016846 -123.7786084 161.52533691 -124.46948242 161.6027832 C-127.52287029 161.95208127 -130.57380008 162.31959887 -133.625 162.6875 C-135.20764648 162.86442383 -135.20764648 162.86442383 -136.82226562 163.04492188 C-138.35463867 163.23344727 -138.35463867 163.23344727 -139.91796875 163.42578125 C-140.85535889 163.53575439 -141.79274902 163.64572754 -142.75854492 163.7590332 C-146.90485918 164.71238697 -149.53014697 166.5896187 -152.71679688 169.34790039 C-155.37542141 174.02501242 -155.00875244 178.51769897 -154.96875 183.80859375 C-154.9725769 184.91928726 -154.97640381 186.02998077 -154.98034668 187.17433167 C-154.98306535 189.52028308 -154.97570745 191.86626482 -154.95898438 194.2121582 C-154.93759592 197.7964263 -154.95877881 201.37868521 -154.984375 204.96289062 C-154.98173132 207.24479608 -154.97660552 209.52670029 -154.96875 211.80859375 C-154.97684692 212.87750351 -154.98494385 213.94641327 -154.99328613 215.04771423 C-154.91704319 221.12160365 -154.55348911 224.7855602 -150.4375 229.375 C-147.44903076 231.36731283 -146.16407912 231.75070105 -142.7265625 232.2265625 C-141.81132812 232.35546875 -140.89609375 232.484375 -139.953125 232.6171875 C-138.99921875 232.74351562 -138.0453125 232.86984375 -137.0625 233 C-136.11632812 233.1340625 -135.17015625 233.268125 -134.1953125 233.40625 C-129.89963146 233.99750947 -125.78067459 234.44766074 -121.4375 234.375 C-121.23125 235.591875 -121.025 236.80875 -120.8125 238.0625 C-119.62815848 243.59819998 -117.16429046 248.35209015 -114.58203125 253.359375 C-113.2835004 256.78076004 -113.10546797 257.99696678 -114.4375 261.375 C-115.98948964 263.44997339 -117.52622969 265.33340323 -119.25 267.25 C-125.71023821 274.48218765 -125.71023821 274.48218765 -128.9375 283.4375 C-127.77295928 290.27917675 -121.99334869 295.15189945 -117.29296875 299.890625 C-116.60495682 300.58766541 -115.91694489 301.28470581 -115.20808411 302.00286865 C-113.75757331 303.46782777 -112.30428601 304.93004242 -110.84838867 306.38964844 C-108.63016175 308.61981048 -106.43129136 310.86795848 -104.23242188 313.1171875 C-102.81625733 314.5428131 -101.3989763 315.96733068 -99.98046875 317.390625 C-99.32918503 318.06144104 -98.67790131 318.73225708 -98.00688171 319.42340088 C-93.99179338 323.39958351 -91.07625867 325.49630405 -85.4375 326.375 C-80.77356006 325.12601269 -78.18253448 323.28662533 -74.73828125 319.95703125 C-66.66336782 312.1718099 -66.66336782 312.1718099 -61.4375 310.375 C-54.92286329 310.78328729 -49.11083323 314.07142547 -43.57128906 317.32080078 C-41.20567726 318.48953211 -39.03372804 318.96121551 -36.4375 319.375 C-36.38851562 320.41398437 -36.33953125 321.45296875 -36.2890625 322.5234375 C-36.29549409 337.71645924 -36.29549409 337.71645924 -29.4375 350.375 C-25.79543327 352.14023785 -22.86868392 352.63109653 -18.83984375 352.640625 C-17.26686523 352.64449219 -17.26686523 352.64449219 -15.66210938 352.6484375 C-14.57736328 352.64070313 -13.49261719 352.63296875 -12.375 352.625 C-11.28638672 352.63273437 -10.19777344 352.64046875 -9.07617188 352.6484375 C-8.02880859 352.64585937 -6.98144531 352.64328125 -5.90234375 352.640625 C-4.949646 352.63836914 -3.99694824 352.63611328 -3.01538086 352.63378906 C-0.32588895 352.36379556 1.30006146 351.83215293 3.5625 350.375 C5.02309326 347.45381347 4.71406549 344.8643976 4.73950195 341.60205078 C4.74935875 340.55786484 4.74935875 340.55786484 4.75941467 339.49258423 C4.77915198 337.18515927 4.79081041 334.87779936 4.80078125 332.5703125 C4.80485678 331.78279476 4.8089323 330.99527702 4.81313133 330.18389511 C4.83399273 326.01664237 4.8482948 321.84942258 4.85766602 317.68212891 C4.86873794 313.37545458 4.90314613 309.0692959 4.94283772 304.76280403 C4.96896576 301.45310497 4.97735436 298.14352955 4.98094749 294.83373642 C4.98582244 293.24608752 4.99746228 291.65844447 5.01598549 290.07089615 C5.04030005 287.84909263 5.03942702 285.62863374 5.0324707 283.40673828 C5.03833694 282.14258087 5.04420319 280.87842346 5.05024719 279.57595825 C4.81028882 276.31402614 4.81028882 276.31402614 2.77067566 273.97628784 C-0.49340419 271.60929708 -3.85399139 271.65576493 -7.75 271.4375 C-28.42232049 269.67268783 -45.31255915 260.29791109 -58.7578125 244.6796875 C-71.66005697 227.85280593 -76.50219041 207.46993669 -73.9765625 186.55859375 C-71.51972261 172.69912637 -66.24127494 161.30382406 -57.4375 150.375 C-56.71626953 149.40820312 -56.71626953 149.40820312 -55.98046875 148.421875 C-45.894579 135.51658668 -28.41247142 127.16097108 -12.40869141 125.11572266 C-6.49682985 124.42811131 -6.49682985 124.42811131 -3.77978516 124.19604492 C-0.07287306 123.83341625 -0.07287306 123.83341625 3.24893188 122.27307129 C5.25955853 119.3677688 4.94416014 116.88238495 4.95068359 113.38085938 C4.95594055 112.67322952 4.96119751 111.96559967 4.96661377 111.23652649 C4.97981947 108.89704323 4.97107415 106.5582402 4.9609375 104.21875 C4.96295808 102.59354522 4.96586939 100.96834132 4.96963501 99.34313965 C4.97405912 95.93684254 4.96762466 92.53078141 4.95361328 89.12451172 C4.93652117 84.75615404 4.94636191 80.38834929 4.96433067 76.0200119 C4.97516627 72.6639997 4.97172324 69.3081188 4.9639473 65.95210266 C4.96194466 64.34133336 4.9644068 62.73055218 4.97138596 61.11979675 C4.97899698 58.86925639 4.96740228 56.61961402 4.95068359 54.36914062 C4.94710342 52.44745056 4.94710342 52.44745056 4.94345093 50.48693848 C4.81664228 47.41492153 4.81664228 47.41492153 3.21322632 45.46510315 C-0.95480994 42.71262419 -7.37975576 43.81976977 -12.1875 43.8125 C-13.45078125 43.77576172 -14.7140625 43.73902344 -16.015625 43.70117188 C-22.73076557 43.66943014 -27.37077099 43.79364943 -32.27905273 48.6550293 Z M39.8125 62.6875 C34.86847505 68.59286313 32.16371232 73.19330753 32.2890625 80.90234375 C33.0636551 87.906874 36.36994782 92.84293785 41.68359375 97.28125 C43.94164987 98.7314816 43.94164987 98.7314816 48.5625 99.375 C48.5625 113.235 48.5625 127.095 48.5625 141.375 C34.0425 141.375 19.5225 141.375 4.5625 141.375 C3.9025 140.055 3.2425 138.735 2.5625 137.375 C1.01464361 135.82714361 -0.40195599 136.13023983 -2.5625 136.0625 C-19.17973831 136.29955048 -34.15997464 144.04864819 -45.77734375 155.55859375 C-53.07771436 163.28776734 -57.16044046 171.28780112 -60.4375 181.375 C-60.685 182.12265625 -60.9325 182.8703125 -61.1875 183.640625 C-65.13757487 198.01450855 -62.40595416 214.05411509 -55.75 227.125 C-46.76958825 242.23454277 -33.95718516 253.09797632 -17 258.125 C-7.60822222 260.57775701 -7.60822222 260.57775701 1.81640625 259.63671875 C4.03240718 258.32084463 4.03240718 258.32084463 4.5625 254.375 C19.0825 254.375 33.6025 254.375 48.5625 254.375 C48.2325 268.235 47.9025 282.095 47.5625 296.375 C45.5825 297.365 43.6025 298.355 41.5625 299.375 C36.98303955 303.55244674 32.99865564 308.118444 32.3515625 314.43359375 C32.04391971 321.45021595 33.97924549 326.58677632 38.3125 332.125 C42.79805729 337.00537407 47.46665084 338.52373319 54 338.8125 C60.25911617 338.60672084 64.73394529 337.03346345 69.31640625 332.7265625 C74.36604613 327.15370693 76.04679224 322.45879244 75.87890625 314.9375 C75.06871666 308.37596458 71.51478806 303.60256298 66.5625 299.375 C63.32588106 297.04415279 63.32588106 297.04415279 59.5625 296.375 C59.57249275 295.52721733 59.57249275 295.52721733 59.58268738 294.66230774 C59.64911724 288.77370905 59.69433232 282.88521703 59.72729492 276.99633789 C59.74237052 274.79935379 59.76283426 272.60239974 59.78881836 270.40551758 C59.82525502 267.24553 59.84223884 264.08594076 59.85546875 260.92578125 C59.87095261 259.94539383 59.88643646 258.96500641 59.90238953 257.95491028 C59.94697374 251.13976849 59.94697374 251.13976849 56.5625 245.375 C53.52003694 243.50571329 51.2474651 243.12928966 47.70214844 243.14794922 C46.74145447 243.14810028 45.7807605 243.14825134 44.79095459 243.14840698 C43.24701019 243.16389084 43.24701019 243.16389084 41.671875 243.1796875 C40.61212463 243.1825174 39.55237427 243.18534729 38.46051025 243.18826294 C35.07772503 243.19945266 31.69520513 243.2245553 28.3125 243.25 C26.01823299 243.26003135 23.72396183 243.26915693 21.4296875 243.27734375 C15.80718953 243.29938808 10.18488974 243.3339099 4.5625 243.375 C4.5625 238.755 4.5625 234.135 4.5625 229.375 C33.6025 229.375 62.6425 229.375 92.5625 229.375 C92.5625 243.235 92.5625 257.095 92.5625 271.375 C90.9125 271.705 89.2625 272.035 87.5625 272.375 C82.65076357 275.6404951 78.29005155 279.65248549 76.5625 285.375 C75.73530254 292.77789372 75.93770312 299.29902052 80.5625 305.375 C85.50460759 310.73593027 90.10171726 313.09590462 97.4375 313.6875 C103.77799807 313.47011149 108.66538309 311.51438002 113.375 307.25 C118.1661335 302.02031881 119.89819709 296.42348482 119.625 289.375 C118.71775121 283.11205677 115.72066588 277.80587042 110.6796875 273.92578125 C108.32306525 272.52068221 106.353004 271.375 103.5625 271.375 C103.56916183 270.82456024 103.57582367 270.27412048 103.58268738 269.70700073 C103.64919522 263.96423194 103.69436455 258.22157305 103.72729492 252.47851562 C103.74235641 250.33686883 103.76280972 248.19525276 103.78881836 246.05371094 C103.82531728 242.97062589 103.84225302 239.88794962 103.85546875 236.8046875 C103.87095261 235.85133514 103.88643646 234.89798279 103.90238953 233.91574097 C103.90371245 228.65843494 103.60148452 224.87769317 100.5625 220.375 C96.61810017 217.74540011 93.25969894 218.10964614 88.68481445 218.14794922 C87.77729431 218.14765717 86.86977417 218.14736511 85.93475342 218.14706421 C82.93166582 218.14845882 79.92882557 218.16402627 76.92578125 218.1796875 C74.84498734 218.18341716 72.76419168 218.18626435 70.68339539 218.18826294 C65.20396078 218.19590308 59.72463202 218.21555488 54.24523926 218.2376709 C48.65504386 218.2581211 43.06483138 218.26726289 37.47460938 218.27734375 C26.50385972 218.29880037 15.53318866 218.33294095 4.5625 218.375 C4.5625 213.425 4.5625 208.475 4.5625 203.375 C57.0325 203.87 57.0325 203.87 110.5625 204.375 C111.8825 207.015 113.2025 209.655 114.5625 212.375 C116.48601784 214.45286038 116.48601784 214.45286038 118.625 215.8125 C119.63240234 216.52212891 119.63240234 216.52212891 120.66015625 217.24609375 C125.85030489 220.32607929 131.73605639 220.11834943 137.5625 219.375 C143.73298278 216.94878296 148.73492369 213.50141533 151.5625 207.375 C154.06329207 200.13652646 153.84181855 194.31875281 150.5625 187.375 C146.82811704 180.97145151 141.59180306 178.27268725 134.5625 176.375 C128.51339885 175.52600335 123.6708519 177.18924599 118.5625 180.375 C114.96170589 183.67700481 112.74800118 187.00399763 110.5625 191.375 C75.5825 191.705 40.6025 192.035 4.5625 192.375 C4.5625 187.755 4.5625 183.135 4.5625 178.375 C6.25592781 178.38499275 6.25592781 178.38499275 7.98356628 178.39518738 C18.62175086 178.45599678 29.25990018 178.50097187 39.89821911 178.53043652 C45.36752248 178.54609381 50.83668557 178.56733345 56.3059082 178.60131836 C61.58380322 178.63390923 66.86156328 178.65185254 72.13955116 178.65963173 C74.15339597 178.6651757 76.16723337 178.67600167 78.18102074 178.69219017 C81.00129547 178.71396065 83.8210122 178.71696706 86.64135742 178.71557617 C87.89076866 178.73175491 87.89076866 178.73175491 89.16542053 178.7482605 C93.8086601 178.72347452 96.76769849 178.34275432 100.5625 175.375 C104.52756519 170.84773212 103.9218034 165.87528392 103.828125 160.18359375 C103.83089508 158.16731583 103.83483674 156.15103923 103.83984375 154.13476562 C103.8314744 150.9654888 103.81230544 147.79721289 103.77197266 144.62817383 C103.7391797 141.56250799 103.74945316 138.49933796 103.765625 135.43359375 C103.74195862 134.4856041 103.71829224 133.53761444 103.69390869 132.56089783 C103.72250353 129.98244448 103.80432381 127.84082664 104.5625 125.375 C106.76299468 123.32188758 108.72567497 122.58365267 111.5625 121.375 C116.32255455 116.61494545 119.26145722 111.70861582 119.73046875 104.95703125 C119.44776457 98.20354258 117.00200874 93.4105539 112.5625 88.375 C107.09334135 83.61578021 101.67010645 82.9587986 94.63671875 83.03515625 C87.49142061 83.82504308 83.11063839 88.40421752 78.69140625 93.7265625 C75.38484815 98.55482381 76.07378313 104.80079454 76.5625 110.375 C78.12735349 116.38523349 81.61919821 119.70275048 86.5625 123.24609375 C88.78959266 124.61995226 88.78959266 124.61995226 92.5625 125.375 C92.5625 139.235 92.5625 153.095 92.5625 167.375 C63.5225 167.375 34.4825 167.375 4.5625 167.375 C4.5625 162.425 4.5625 157.475 4.5625 152.375 C6.02067139 152.39594727 7.47884277 152.41689453 8.98120117 152.43847656 C14.39500088 152.5109171 19.80875781 152.55681505 25.22290039 152.59472656 C27.56542161 152.61483265 29.9078927 152.64212166 32.25024414 152.67675781 C35.61877823 152.72531841 38.98664831 152.74797922 42.35546875 152.765625 C43.40147751 152.78627014 44.44748627 152.80691528 45.52519226 152.82818604 C51.40895209 152.84481422 51.40895209 152.84481422 56.70043945 150.47558594 C59.40156407 147.42845388 59.68666112 145.81125876 59.67602539 141.83349609 C59.67594986 140.89267181 59.67587433 139.95184753 59.67579651 138.98251343 C59.67063522 137.96476837 59.66547394 136.94702332 59.66015625 135.8984375 C59.6587413 134.85805328 59.65732635 133.81766907 59.65586853 132.74575806 C59.65025866 129.41380979 59.63770447 126.08192805 59.625 122.75 C59.61998627 120.49479264 59.61542314 118.23958422 59.61132812 115.984375 C59.60028603 110.44789386 59.58353827 104.91145168 59.5625 99.375 C60.34874756 99.23328369 61.13499512 99.09156738 61.94506836 98.94555664 C66.7911875 97.88918313 70.02505606 94.4743752 72.8984375 90.55078125 C75.88873086 85.3230698 76.56404294 80.29483417 75.5625 74.375 C73.39585868 67.31258263 70.00381887 63.26197671 63.74609375 59.43359375 C55.54409269 55.45731059 46.66658794 56.92383514 39.8125 62.6875 Z " fill="#3A7EB8" transform="translate(277.4375,-0.37499999999999994)"/>
<path d="M0 0 C5.61 0 11.22 0 17 0 C17.02255577 7.41460363 17.04091784 14.82918865 17.05181217 22.24381924 C17.05703982 25.68640348 17.06413531 29.12896312 17.07543945 32.5715332 C17.08834235 36.52555043 17.09322918 40.47955756 17.09765625 44.43359375 C17.10281754 45.67523788 17.10797882 46.91688202 17.11329651 48.19615173 C17.11337204 49.33725906 17.11344757 50.47836639 17.11352539 51.65405273 C17.115746 52.664431 17.11796661 53.67480927 17.12025452 54.71580505 C17 57 17 57 16 58 C14.31434326 58.3138078 12.6273879 58.6218666 10.93530273 58.89892578 C-12.27323791 62.73721002 -32.27894336 73.60904318 -46.3125 92.6875 C-59.16946988 111.0382719 -64.72601899 133.92692239 -61.17944336 156.10302734 C-58.16547356 172.7109434 -51.13220225 187.34509357 -40 200 C-39.33355469 200.76183594 -38.66710937 201.52367187 -37.98046875 202.30859375 C-23.36359938 217.95596597 -3.62242219 224.56292963 17 228 C17 247.14 17 266.28 17 286 C11.39 286 5.78 286 0 286 C-1.98 271.15 -1.98 271.15 -4 256 C-7.3 255.01 -10.6 254.02 -14 253 C-16.94404103 251.87162191 -19.84800726 250.72386066 -22.75 249.5 C-23.46542969 249.20480469 -24.18085938 248.90960938 -24.91796875 248.60546875 C-28.13876584 247.26396244 -31.19653423 245.89279951 -34.265625 244.21875 C-36.80256413 242.86168243 -36.80256413 242.86168243 -38.98046875 243.015625 C-42.06575527 244.51947839 -44.6502672 246.61368774 -47.3125 248.75 C-48.47358278 249.6580325 -49.63503779 250.56558925 -50.796875 251.47265625 C-52.62491488 252.91178543 -54.44734988 254.35710861 -56.265625 255.80859375 C-60.49496174 259.05414999 -60.49496174 259.05414999 -62.98883057 258.78675842 C-65.24897238 257.90260338 -66.41658481 256.94635486 -68.11621094 255.22436523 C-68.69651062 254.64383896 -69.2768103 254.06331268 -69.87469482 253.4651947 C-70.48838928 252.83601639 -71.10208374 252.20683807 -71.734375 251.55859375 C-72.37240051 250.91632339 -73.01042603 250.27405304 -73.66778564 249.61231995 C-75.70234118 247.56098274 -77.72621379 245.49945727 -79.75 243.4375 C-81.12821491 242.04423766 -82.50711325 240.65165102 -83.88671875 239.25976562 C-87.26579046 235.84763135 -90.63531864 232.42632293 -94 229 C-92.75981792 225.54001501 -91.4215967 223.01320754 -88.99609375 220.2578125 C-88.42052734 219.58363281 -87.84496094 218.90945313 -87.25195312 218.21484375 C-86.04449473 216.82412202 -84.83095148 215.43865954 -83.61132812 214.05859375 C-80.01299534 209.81813423 -77.77978021 206.80991612 -78 201 C-78.93496307 198.10317699 -80.26327074 195.49674242 -81.6875 192.8125 C-82.43613712 191.32027972 -83.17961838 189.82546184 -83.91796875 188.328125 C-84.27810059 187.59787109 -84.63823242 186.86761719 -85.00927734 186.11523438 C-87.26651658 181.29593405 -90 175.40829652 -90 170 C-93.14538695 169.51787364 -96.29138596 169.03985675 -99.4375 168.5625 C-100.75524414 168.36043945 -100.75524414 168.36043945 -102.09960938 168.15429688 C-106.42761426 167.49950647 -110.74223052 166.90582305 -115.09765625 166.46484375 C-119 166 -119 166 -120 165 C-120.0928726 163.58774954 -120.11746772 162.17091066 -120.11352539 160.75561523 C-120.11344986 159.85475693 -120.11337433 158.95389862 -120.11329651 158.02574158 C-120.10813522 157.04658279 -120.10297394 156.06742401 -120.09765625 155.05859375 C-120.0962413 154.06118668 -120.09482635 153.0637796 -120.09336853 152.03614807 C-120.08775114 148.83656876 -120.07519571 145.63705831 -120.0625 142.4375 C-120.05748724 140.27408955 -120.05292395 138.11067801 -120.04882812 135.94726562 C-120.03777607 130.63148675 -120.02102104 125.31574829 -120 120 C-119.16750732 119.90501221 -118.33501465 119.81002441 -117.47729492 119.7121582 C-114.38296098 119.34813162 -111.29201804 118.96382383 -108.2019043 118.56567383 C-106.20878098 118.31517463 -104.21275682 118.08811944 -102.21679688 117.86132812 C-100.96318359 117.69697266 -99.70957031 117.53261719 -98.41796875 117.36328125 C-97.26063232 117.22188721 -96.1032959 117.08049316 -94.91088867 116.93481445 C-91.84191188 116.25213792 -91.84191188 116.25213792 -90.18823242 113.65795898 C-89.21552308 111.48210392 -88.30456653 109.37424396 -87.5703125 107.109375 C-87.33449463 106.40409668 -87.09867676 105.69881836 -86.85571289 104.97216797 C-86.61457764 104.23885254 -86.37344238 103.50553711 -86.125 102.75 C-84.2211363 97.08478584 -82.24680665 91.98780397 -78.78515625 87.0546875 C-77.4931959 83.67373655 -78.07519996 81.47072015 -79 78 C-80.7075838 75.214149 -82.7450195 72.78417526 -84.875 70.3125 C-85.95597262 69.0171302 -87.03670885 67.7215631 -88.1171875 66.42578125 C-88.62088867 65.83104004 -89.12458984 65.23629883 -89.64355469 64.62353516 C-91.16749127 62.79952898 -92.60612571 60.9251061 -94 59 C-92.70280076 56.14220983 -91.3363174 54.08991464 -89.11083984 51.88378906 C-88.5303891 51.30348938 -87.94993835 50.7231897 -87.35189819 50.12530518 C-86.72788116 49.51161072 -86.10386414 48.89791626 -85.4609375 48.265625 C-84.82008209 47.62759949 -84.17922668 46.98957397 -83.51895142 46.33221436 C-81.47562179 44.30005931 -79.42544018 42.27497782 -77.375 40.25 C-75.9865214 38.8715547 -74.5984951 37.49265364 -73.2109375 36.11328125 C-69.81251303 32.73688106 -66.40792746 29.36680712 -63 26 C-59.91859429 27.40817392 -57.48758506 29.09874413 -54.8828125 31.2578125 C-54.11066406 31.88300781 -53.33851563 32.50820312 -52.54296875 33.15234375 C-50.93183092 34.46676153 -49.32761226 35.78970658 -47.73046875 37.12109375 C-43.23007349 40.7856062 -43.23007349 40.7856062 -37.83203125 42.62890625 C-34.3497506 41.85559979 -31.68631725 40.53814227 -28.5625 38.8125 C-22.21972246 35.4197514 -15.85747621 33.13199225 -8.984375 31.04296875 C-5.92755966 30.21705025 -5.92755966 30.21705025 -4 28 C-3.3464757 25.09541113 -3.3464757 25.09541113 -2.9296875 21.6796875 C-2.75566406 20.42285156 -2.58164063 19.16601562 -2.40234375 17.87109375 C-2.22638116 16.53908644 -2.05060228 15.20705486 -1.875 13.875 C-1.69217671 12.5350509 -1.50859219 11.19520543 -1.32421875 9.85546875 C-0.87530764 6.57132961 -0.4366916 3.28578629 0 0 Z " fill="#298DBF" transform="translate(254,55)"/>
<path d="M0 0 C0 33.33 0 66.66 0 101 C-13.71848273 99.47572414 -25.27098912 93.9338827 -34.3125 83.25 C-43.47770765 71.04823871 -46.23673117 58.05453009 -45 43 C-42.24454782 29.50573149 -35.70424472 17.56685345 -24.58203125 9.17578125 C-17.71782492 4.84336485 -8.34368513 0 0 0 Z " fill="#298DBF" transform="translate(271,147)"/>
<path d="M0 0 C2.47555146 1.92542891 3.36131106 2.76077355 4.25 5.75 C4.91298343 12.71132597 4.91298343 12.71132597 2.375 16.6875 C-1.13314462 20.09246389 -3.7682722 20.08466645 -8.48828125 20.0390625 C-11.83634301 19.61115823 -13.51066981 18.19926739 -15.75 15.75 C-16.96762731 12.09711807 -17.14075851 9.59245864 -16.75 5.75 C-12.95464079 -0.82959955 -7.07475836 -3.21579926 0 0 Z " fill="#10A3CB" transform="translate(337.75,69.25)"/>
<path d="M0 0 C2.86624771 2.44825325 4.61349969 4.24877735 5.44140625 8 C5.65821147 11.69268247 5.10798801 13.83081878 3.125 16.9375 C-0.3839575 20.34325286 -3.01818439 20.33097275 -7.73828125 20.29296875 C-11.0542278 19.86344199 -12.74987627 18.39075646 -15 16 C-16.61540873 12.76918255 -16.5896275 9.49240902 -16 6 C-12.34868847 -0.58363893 -7.0892766 -2.20677871 0 0 Z " fill="#4277B4" transform="translate(337,307)"/>
<path d="M0 0 C3.26250137 1.89818262 5.38735287 3.29284844 6.6953125 6.9375 C7.3176423 10.43313973 7.20722094 12.50921357 5.8125 15.8125 C2.83038672 19.41160223 1.33699707 20.85414577 -3.4375 21.375 C-7.20656993 20.9782558 -9.02618388 20.29408672 -12 18 C-14.6790573 13.98141405 -14.69610694 10.72358279 -14 6 C-10.41017261 0.25627618 -6.66214612 -1.06297693 0 0 Z " fill="#3D7BB7" transform="translate(379,281)"/>
<path d="M0 0 C3.19246431 1.47344507 5.34194114 2.61749915 6.890625 5.87109375 C7.84549982 9.10909875 8.11786795 11.42375669 7.4375 14.75 C5.53715474 17.72445345 4.08773104 19.22619706 1 21 C-2.132926 21.61407624 -4.87065312 21.64627816 -8 21 C-11.67080764 18.47631975 -12.75864984 16.82964117 -14 12.5625 C-14 8.41043888 -13.33117811 6.41906123 -11 3 C-7.38149613 0.06607794 -4.60901522 -0.65843075 0 0 Z " fill="#298DBF" transform="translate(412,187)"/>
<path d="M0 0 C2.75569447 2.18159145 4.43588747 3.87177494 6 7 C6.44408691 10.9079648 6.13704844 12.74548146 4.25 16.25 C0.97142857 20.25714286 0.97142857 20.25714286 -2 21 C-6.76471422 20.92436962 -9.03156586 20.64562276 -13 18 C-15.36659113 14.4501133 -15.66380999 12.34199986 -15.43359375 8.15625 C-14.79285558 4.96987639 -13.33398654 3.19669322 -11 1 C-7.52736727 -0.73631636 -3.78806987 -0.60190402 0 0 Z " fill="#159EC9" transform="translate(380,94)"/>
</svg>
